<mxfile host="app.diagrams.net" agent="Mozilla/5.0 (Windows NT 10.0; Win64; x64; rv:138.0) Gecko/20100101 Firefox/138.0" version="27.1.0">
  <diagram name="Jokes - Microservices Architecture" id="pL0A2OCYV4RZMWvLkzZs">
    <mxGraphModel dx="1042" dy="535" grid="1" gridSize="10" guides="1" tooltips="1" connect="1" arrows="1" fold="1" page="1" pageScale="1" pageWidth="827" pageHeight="1169" math="0" shadow="0">
      <root>
        <mxCell id="0" />
        <mxCell id="1" parent="0" />
        <mxCell id="2" value="Frontend (UI)" style="shape=rectangle;whiteSpace=wrap;html=1;rounded=1;fillColor=#dae8fc;strokeColor=#6c8ebf;" parent="1" vertex="1">
          <mxGeometry x="420" y="20" width="160" height="50" as="geometry" />
        </mxCell>
        <mxCell id="3" value="Frontend Gateway" style="shape=rectangle;whiteSpace=wrap;html=1;rounded=1;fillColor=#e1d5e7;strokeColor=#9673a6;" parent="1" vertex="1">
          <mxGeometry x="420" y="100" width="160" height="50" as="geometry" />
        </mxCell>
        <mxCell id="4" value="Content Service" style="shape=rectangle;whiteSpace=wrap;html=1;rounded=1;fillColor=#d5e8d4;strokeColor=#82b366;" parent="1" vertex="1">
          <mxGeometry x="190" y="200" width="160" height="50" as="geometry" />
        </mxCell>
        <mxCell id="5" value="Rating Service" style="shape=rectangle;whiteSpace=wrap;html=1;rounded=1;fillColor=#fff2cc;strokeColor=#d6b656;" parent="1" vertex="1">
          <mxGeometry x="420" y="200" width="160" height="50" as="geometry" />
        </mxCell>
        <mxCell id="YYgXeeU44jHyPc5CwKaI-16" style="edgeStyle=orthogonalEdgeStyle;rounded=0;orthogonalLoop=1;jettySize=auto;html=1;exitX=0;exitY=0.5;exitDx=0;exitDy=0;entryX=1;entryY=0.5;entryDx=0;entryDy=0;startArrow=classic;startFill=1;" edge="1" parent="1" source="6" target="5">
          <mxGeometry relative="1" as="geometry" />
        </mxCell>
        <mxCell id="6" value="Ranking Service" style="shape=rectangle;whiteSpace=wrap;html=1;rounded=1;fillColor=#f8cecc;strokeColor=#b85450;" parent="1" vertex="1">
          <mxGeometry x="667" y="200" width="160" height="50" as="geometry" />
        </mxCell>
        <mxCell id="7" value="Stats Service" style="shape=rectangle;whiteSpace=wrap;html=1;rounded=1;fillColor=#f5f5f5;strokeColor=#666666;" parent="1" vertex="1">
          <mxGeometry x="667" y="100" width="160" height="50" as="geometry" />
        </mxCell>
        <mxCell id="8" value="Content Delivery Service" style="shape=rectangle;whiteSpace=wrap;html=1;rounded=1;fillColor=#ddeeff;strokeColor=#3399ff;" parent="1" vertex="1">
          <mxGeometry x="170" y="100" width="200" height="50" as="geometry" />
        </mxCell>
        <mxCell id="9" style="endArrow=block;html=1;startArrow=classic;startFill=1;" parent="1" source="2" target="3" edge="1">
          <mxGeometry relative="1" as="geometry" />
        </mxCell>
        <mxCell id="10" style="endArrow=block;html=1;startArrow=classic;startFill=1;" parent="1" source="3" target="4" edge="1">
          <mxGeometry relative="1" as="geometry" />
        </mxCell>
        <mxCell id="11" style="endArrow=block;html=1;" parent="1" source="3" target="5" edge="1">
          <mxGeometry relative="1" as="geometry" />
        </mxCell>
        <mxCell id="12" style="endArrow=none;html=1;startArrow=classic;startFill=1;" parent="1" source="3" target="6" edge="1">
          <mxGeometry relative="1" as="geometry" />
        </mxCell>
        <mxCell id="13" style="endArrow=block;html=1;" parent="1" source="3" target="7" edge="1">
          <mxGeometry relative="1" as="geometry" />
        </mxCell>
        <mxCell id="14" style="endArrow=none;html=1;startArrow=classic;startFill=1;" parent="1" source="3" target="8" edge="1">
          <mxGeometry relative="1" as="geometry" />
        </mxCell>
        <mxCell id="15" style="endArrow=block;startArrow=none;html=1;startFill=0;" parent="1" source="4" target="8" edge="1">
          <mxGeometry relative="1" as="geometry" />
        </mxCell>
      </root>
    </mxGraphModel>
  </diagram>
</mxfile>
